<?xml version="1.0" encoding="UTF-8"?>
<svg id="Calque_2" data-name="Calque 2" xmlns="http://www.w3.org/2000/svg" xmlns:xlink="http://www.w3.org/1999/xlink" viewBox="0 0 599.1 599.1">
  <defs>
    <style>
      .cls-1, .cls-2 {
        fill: #fff;
      }

      .cls-3 {
        opacity: .8;
      }

      .cls-4 {
        fill: url(#Dégradé_sans_nom);
      }

      .cls-2 {
        stroke: #fff;
        stroke-miterlimit: 10;
      }
    </style>
    <linearGradient id="Dégradé_sans_nom" data-name="Dégradé sans nom" x1="561.3" y1="212.7" x2="37.78" y2="736.22" gradientTransform="translate(0 774) scale(1 -1)" gradientUnits="userSpaceOnUse">
      <stop offset=".51" stop-color="#ed2939"/>
      <stop offset=".93" stop-color="#ed2939" stop-opacity=".68"/>
      <stop offset="1" stop-color="#ed2939" stop-opacity=".63"/>
    </linearGradient>
  </defs>
  <g id="Calque_1-2" data-name="Calque 1">
    <g>
      <g class="cls-3">
        <path class="cls-4" d="M470.1,599.1H129C57.8,599.1,0,541.4,0,470.1V129C0,57.8,57.7,0,129,0H470.1c71.2,0,129,57.7,129,129V470.1c0,71.2-57.8,129-129,129Z"/>
      </g>
      <path class="cls-2" d="M458,536.7h0c-6,4-14.1,2.3-18.1-3.7l-36.6-55.7c-4-6-2.3-14.1,3.7-18.1h0c6-4,14.1-2.3,18.1,3.7l36.6,55.7c4,6,2.3,14.1-3.7,18.1Z"/>
      <path class="cls-1" d="M195.6,55.9h-1.7c-46.2,0-83.7,37.6-83.7,83.7v7.2c0,46.2,37.6,83.7,83.7,83.7h1.7c46.2,0,83.7-37.6,83.7-83.7v-7.2c0-46.1-37.5-83.7-83.7-83.7Zm-2.1,26.9h2.3c31.7,0,57.5,25.8,57.5,57.5v6.2c0,31.7-25.8,57.5-57.5,57.5h-2.3c-31.7,0-57.5-25.8-57.5-57.5v-6.2c0-31.7,25.8-57.5,57.5-57.5Z"/>
      <g>
        <g>
          <path class="cls-1" d="M282.2,182.5c-46.8,0-84.8,38-84.8,84.8v5.5c0,46.8,38,84.8,84.8,84.8s84.8-38,84.8-84.8v-5.5c0-46.8-38.1-84.8-84.8-84.8Zm58.7,89.7c0,32.5-26.4,58.9-58.9,58.9s-58.9-26.4-58.9-58.9v-3.9c0-32.5,26.4-58.9,58.9-58.9s58.9,26.4,58.9,58.9v3.9Z"/>
          <path class="cls-1" d="M282.2,183c46.5,0,84.3,37.8,84.3,84.3v5.5c0,46.5-37.8,84.3-84.3,84.3s-84.3-37.8-84.3-84.3v-5.5c-.1-46.5,37.8-84.3,84.3-84.3h0Zm0-1h0c-47.1,0-85.3,38.2-85.3,85.3v5.5c0,47.1,38.2,85.3,85.3,85.3h0c47.1,0,85.3-38.2,85.3-85.3v-5.5c0-47.1-38.2-85.3-85.3-85.3h0Z"/>
        </g>
        <path class="cls-1" d="M282,208.4c-33.1,0-59.9,26.8-59.9,59.9v3.9c0,33.1,26.8,59.9,59.9,59.9,16.5,0,31.5-6.7,42.3-17.5s17.5-25.8,17.5-42.3v-3.9c.1-33.2-26.7-60-59.8-60Zm58.9,63.8c0,32.5-26.4,58.9-58.9,58.9s-58.9-26.4-58.9-58.9v-3.9c0-32.5,26.4-58.9,58.9-58.9s58.9,26.4,58.9,58.9v3.9Z"/>
      </g>
      <path class="cls-1" d="M365.8,312.4c-46.8,0-84.8,38-84.8,84.8v5.5c0,46.8,38,84.8,84.8,84.8s84.8-38,84.8-84.8v-5.5c.1-46.7-38-84.8-84.8-84.8Zm-.1,27c32.5,0,58.9,26.4,58.9,58.9v3.9c0,32.5-26.4,58.9-58.9,58.9s-58.9-26.4-58.9-58.9v-3.9c.1-32.5,26.5-58.9,58.9-58.9Z"/>
    </g>
  </g>
</svg>